<svg width="174" height="33" viewBox="0 0 174 33" fill="none" xmlns="http://www.w3.org/2000/svg">
<g clip-path="url(#clip0_561_17603)">
<path d="M52.2793 24.7381V8.4502H55.6194V21.9459H63.7169V24.7381H52.2793Z" fill="white"/>
<path d="M70.9288 25.0639C69.6804 25.0639 68.5586 24.8312 67.5633 24.3658C66.5679 23.9005 65.7835 23.2257 65.2099 22.3415C64.6364 21.4573 64.3496 20.3947 64.3496 19.1537V18.7814C64.3496 17.5404 64.6364 16.4778 65.2099 15.5936C65.7835 14.7094 66.5679 14.0346 67.5633 13.5692C68.5586 13.1039 69.6804 12.8712 70.9288 12.8712C72.1771 12.8712 73.299 13.1039 74.2943 13.5692C75.2895 14.0346 76.0739 14.7094 76.6476 15.5936C77.2212 16.4778 77.5079 17.5404 77.5079 18.7814V19.1537C77.5079 20.3947 77.2212 21.4573 76.6476 22.3415C76.0739 23.2257 75.2895 23.9005 74.2943 24.3658C73.299 24.8312 72.1771 25.0639 70.9288 25.0639ZM70.9288 22.4578C71.9072 22.4578 72.7169 22.1708 73.358 21.5969C73.999 21.0074 74.3196 20.1697 74.3196 19.0839V18.8512C74.3196 17.7653 73.999 16.9354 73.358 16.3614C72.7338 15.772 71.924 15.4772 70.9288 15.4772C69.9503 15.4772 69.1406 15.772 68.4995 16.3614C67.8584 16.9354 67.5379 17.7653 67.5379 18.8512V19.0839C67.5379 20.1697 67.8584 21.0074 68.4995 21.5969C69.1406 22.1708 69.9503 22.4578 70.9288 22.4578Z" fill="white"/>
<path d="M78.7041 19.0141V18.6418C78.7041 17.4318 78.9655 16.4002 79.4885 15.547C80.0115 14.6784 80.7031 14.0191 81.5635 13.5692C82.4407 13.1039 83.3938 12.8712 84.4229 12.8712C85.57 12.8712 86.4388 13.0573 87.0292 13.4296C87.6197 13.8019 88.0499 14.1897 88.3198 14.593H88.7753V13.1969H91.9131V26.7857C91.9131 27.5769 91.66 28.2051 91.1539 28.6705C90.6478 29.1514 89.9731 29.3918 89.1295 29.3918H80.7285V26.8323H88.0161C88.4886 26.8323 88.7247 26.5996 88.7247 26.1342V23.1326H88.2692C88.1005 23.3808 87.8643 23.6367 87.5607 23.9005C87.2571 24.1486 86.8522 24.3581 86.3461 24.5287C85.8399 24.6993 85.199 24.7847 84.4229 24.7847C83.3938 24.7847 82.4407 24.5597 81.5635 24.1099C80.7031 23.6445 80.0115 22.9852 79.4885 22.132C78.9655 21.2634 78.7041 20.224 78.7041 19.0141ZM85.3339 22.2251C86.3124 22.2251 87.1305 21.9381 87.7884 21.3642C88.4464 20.7902 88.7753 19.9836 88.7753 18.9443V18.7116C88.7753 17.6567 88.4464 16.8501 87.7884 16.2916C87.1473 15.7177 86.3292 15.4307 85.3339 15.4307C84.3554 15.4307 83.5373 15.7177 82.8793 16.2916C82.2214 16.8501 81.8924 17.6567 81.8924 18.7116V18.9443C81.8924 19.9836 82.2214 20.7902 82.8793 21.3642C83.5373 21.9381 84.3554 22.2251 85.3339 22.2251Z" fill="white"/>
<path d="M100.281 25.0639C99.0331 25.0639 97.9112 24.8312 96.9158 24.3658C95.9205 23.9005 95.1361 23.2257 94.5626 22.3415C93.989 21.4573 93.7021 20.3947 93.7021 19.1537V18.7814C93.7021 17.5404 93.989 16.4778 94.5626 15.5936C95.1361 14.7094 95.9205 14.0346 96.9158 13.5692C97.9112 13.1039 99.0331 12.8712 100.281 12.8712C101.53 12.8712 102.652 13.1039 103.647 13.5692C104.642 14.0346 105.427 14.7094 106 15.5936C106.574 16.4778 106.861 17.5404 106.861 18.7814V19.1537C106.861 20.3947 106.574 21.4573 106 22.3415C105.427 23.2257 104.642 23.9005 103.647 24.3658C102.652 24.8312 101.53 25.0639 100.281 25.0639ZM100.281 22.4578C101.26 22.4578 102.07 22.1708 102.711 21.5969C103.352 21.0074 103.672 20.1697 103.672 19.0839V18.8512C103.672 17.7653 103.352 16.9354 102.711 16.3614C102.086 15.772 101.277 15.4772 100.281 15.4772C99.3029 15.4772 98.4932 15.772 97.8522 16.3614C97.2111 16.9354 96.8906 17.7653 96.8906 18.8512V19.0839C96.8906 20.1697 97.2111 21.0074 97.8522 21.5969C98.4932 22.1708 99.3029 22.4578 100.281 22.4578Z" fill="white"/>
<path d="M108.665 24.7381V13.1969H111.854V24.7381H108.665ZM110.26 11.8474C109.686 11.8474 109.197 11.6767 108.792 11.3354C108.404 10.9942 108.21 10.5443 108.21 9.98587C108.21 9.42743 108.404 8.97757 108.792 8.6363C109.197 8.29503 109.686 8.12439 110.26 8.12439C110.85 8.12439 111.34 8.29503 111.727 8.6363C112.115 8.97757 112.31 9.42743 112.31 9.98587C112.31 10.5443 112.115 10.9942 111.727 11.3354C111.34 11.6767 110.85 11.8474 110.26 11.8474Z" fill="white"/>
<path d="M114.248 29.3918V13.1969H117.385V14.593H117.841C118.127 14.1432 118.574 13.7476 119.182 13.4063C119.789 13.0496 120.658 12.8712 121.789 12.8712C122.8 12.8712 123.736 13.1039 124.597 13.5692C125.458 14.0191 126.15 14.6861 126.672 15.5703C127.195 16.4545 127.457 17.5249 127.457 18.7814V19.1537C127.457 20.4102 127.195 21.4805 126.672 22.3647C126.15 23.2489 125.458 23.9237 124.597 24.3891C123.736 24.8389 122.8 25.0639 121.789 25.0639C121.03 25.0639 120.388 24.9786 119.865 24.8079C119.359 24.6528 118.946 24.4511 118.625 24.2029C118.322 23.9392 118.077 23.6755 117.891 23.4118H117.436V29.3918H114.248ZM120.826 22.5043C121.822 22.5043 122.64 22.2174 123.281 21.6434C123.939 21.0539 124.268 20.2008 124.268 19.0839V18.8512C124.268 17.7343 123.939 16.8889 123.281 16.3149C122.623 15.7254 121.805 15.4307 120.826 15.4307C119.849 15.4307 119.03 15.7254 118.372 16.3149C117.714 16.8889 117.385 17.7343 117.385 18.8512V19.0839C117.385 20.2008 117.714 21.0539 118.372 21.6434C119.03 22.2174 119.849 22.5043 120.826 22.5043Z" fill="white"/>
<path d="M134.459 25.0639C132.822 25.0639 131.481 24.7381 130.435 24.0866C129.39 23.4351 128.757 22.5043 128.537 21.2944L131.472 20.5963C131.591 21.1393 131.784 21.5658 132.055 21.8761C132.341 22.1863 132.687 22.4113 133.093 22.5509C133.514 22.675 133.969 22.737 134.459 22.737C135.201 22.737 135.749 22.6207 136.103 22.388C136.457 22.1398 136.635 21.8373 136.635 21.4805C136.635 21.1237 136.466 20.8523 136.129 20.6661C135.791 20.4645 135.251 20.3016 134.51 20.1775L133.801 20.0611C132.923 19.906 132.123 19.6966 131.397 19.4329C130.671 19.1537 130.089 18.7736 129.651 18.2927C129.212 17.8119 128.993 17.1914 128.993 16.4313C128.993 15.2833 129.448 14.4069 130.36 13.8019C131.27 13.1814 132.468 12.8712 133.953 12.8712C135.352 12.8712 136.517 13.1581 137.445 13.7321C138.372 14.3061 138.979 15.0584 139.266 15.9892L136.306 16.8268C136.171 16.2374 135.893 15.8185 135.471 15.5703C135.065 15.3221 134.56 15.198 133.953 15.198C133.345 15.198 132.882 15.2989 132.561 15.5005C132.24 15.6867 132.08 15.9504 132.08 16.2916C132.08 16.6639 132.249 16.9432 132.586 17.1293C132.923 17.2999 133.379 17.4318 133.953 17.5249L134.661 17.6412C135.606 17.7963 136.457 18.0058 137.216 18.2695C137.993 18.5177 138.6 18.8822 139.039 19.3631C139.494 19.8285 139.722 20.4645 139.722 21.2711C139.722 22.4811 139.241 23.4196 138.28 24.0866C137.335 24.7381 136.062 25.0639 134.459 25.0639Z" fill="white"/>
<path d="M146.16 24.9243C145.182 24.9243 144.321 24.7226 143.579 24.3193C142.853 23.9005 142.289 23.3265 141.883 22.5974C141.479 21.8683 141.276 21.0307 141.276 20.0844V13.1969H144.465V19.8517C144.465 20.7204 144.692 21.3719 145.148 21.8063C145.62 22.2406 146.286 22.4578 147.147 22.4578C148.125 22.4578 148.885 22.1631 149.424 21.5736C149.964 20.9686 150.234 20.1309 150.234 19.0606V13.1969H153.423V24.7381H150.284V23.2257H149.83C149.627 23.6135 149.247 23.9935 148.691 24.3658C148.134 24.7381 147.29 24.9243 146.16 24.9243Z" fill="white"/>
<path d="M155.831 24.738V13.1968H158.968V14.4533H159.424C159.644 14.0655 160.007 13.732 160.513 13.4528C161.018 13.158 161.685 13.0107 162.512 13.0107C163.406 13.0107 164.123 13.1736 164.663 13.4993C165.202 13.8096 165.615 14.2206 165.902 14.7326H166.358C166.645 14.2362 167.05 13.8251 167.573 13.4993C168.096 13.1736 168.838 13.0107 169.799 13.0107C170.575 13.0107 171.276 13.1658 171.9 13.4761C172.54 13.7708 173.047 14.2284 173.418 14.8489C173.806 15.4539 174 16.2217 174 17.1525V24.738H170.811V17.3619C170.811 16.7259 170.634 16.2528 170.281 15.9425C169.926 15.6168 169.428 15.4539 168.788 15.4539C168.062 15.4539 167.497 15.671 167.092 16.1054C166.704 16.5242 166.51 17.1292 166.51 17.9203V24.738H163.322V17.3619C163.322 16.7259 163.144 16.2528 162.79 15.9425C162.435 15.6168 161.938 15.4539 161.297 15.4539C160.571 15.4539 160.006 15.671 159.601 16.1054C159.213 16.5242 159.02 17.1292 159.02 17.9203V24.738H155.831Z" fill="white"/>
<path d="M42.1747 16.0127C42.1747 11.8985 40.3973 7.95275 37.2335 5.04356C34.0698 2.13437 29.7788 0.500001 25.3046 0.5C20.8304 0.499999 16.5395 2.13437 13.3757 5.04356C10.2119 7.95275 8.43457 11.8985 8.43457 16.0127H13.7065C15.4535 16.0127 16.8159 14.6665 17.4558 13.1717C17.8759 12.1903 18.5134 11.2884 19.3401 10.5281C20.922 9.07352 23.0675 8.25634 25.3046 8.25634C27.5417 8.25634 29.6872 9.07352 31.2691 10.5281C32.851 11.9827 33.7396 13.9556 33.7396 16.0127H42.1747Z" fill="#FF4A0B"/>
<path d="M32.4561 21.9491C33.3039 20.067 33.7403 18.0498 33.7403 16.0127H42.1744C42.1744 24.5801 34.6214 31.5253 25.3044 31.5253C23.8453 31.5253 22.4293 31.355 21.0791 31.0348C21.8431 30.8538 22.594 30.6233 23.3261 30.3445C25.3729 29.5649 27.2326 28.4223 28.7992 26.9818C30.3657 25.5413 31.6084 23.8312 32.4561 21.9491Z" fill="#CE3900"/>
<path d="M0 16.0126C-3.16933e-07 18.0498 0.436356 20.067 1.28415 21.9491C2.13196 23.8312 3.37459 25.5413 4.94112 26.9818C6.50764 28.4222 8.36739 29.5649 10.4142 30.3445C12.4609 31.1241 14.6546 31.5253 16.8701 31.5253C19.0854 31.5253 21.2791 31.1241 23.3259 30.3445C25.3727 29.5649 27.2324 28.4222 28.799 26.9818C30.3655 25.5413 31.6081 23.8312 32.4559 21.9491C33.3037 20.067 33.7401 18.0498 33.7401 16.0126H28.4681C26.7212 16.0126 25.3588 17.3588 24.7189 18.8535C24.7007 18.8961 24.682 18.9385 24.663 18.9809C24.2391 19.9219 23.6178 20.777 22.8345 21.4972C22.0512 22.2174 21.1213 22.7888 20.098 23.1786C19.0746 23.5684 17.9778 23.769 16.8701 23.769C15.7623 23.769 14.6655 23.5684 13.6421 23.1786C12.6187 22.7888 11.6889 22.2174 10.9056 21.4972C10.1223 20.777 9.501 19.9219 9.0771 18.9809C8.65319 18.0398 8.43502 17.0312 8.43502 16.0126H0Z" fill="#FF4A0B"/>
<path d="M0.00195312 16.0127C0.00195312 7.44524 7.55491 0.5 16.8719 0.5C18.3307 0.5 19.7462 0.670246 21.0963 0.990323C18.1993 1.67657 15.5269 3.06535 13.3755 5.04357C10.2118 7.95273 8.43441 11.8985 8.43441 16.0127H0.00195312Z" fill="#CE3900"/>
</g>
<defs>
<clipPath id="clip0_561_17603">
<rect width="174" height="32" fill="white" transform="translate(0 0.5)"/>
</clipPath>
</defs>
</svg>
