<svg width="174" height="32" viewBox="0 0 174 32" fill="none" xmlns="http://www.w3.org/2000/svg">
<g clip-path="url(#clip0_118_694)">
<path d="M52.2792 24.2381V7.9502H55.6193V21.4459H63.7167V24.2381H52.2792Z" fill="#1A1D25"/>
<path d="M70.9288 24.5639C69.6804 24.5639 68.5586 24.3312 67.5633 23.8658C66.5679 23.4005 65.7835 22.7257 65.2099 21.8415C64.6364 20.9573 64.3496 19.8947 64.3496 18.6537V18.2814C64.3496 17.0404 64.6364 15.9778 65.2099 15.0936C65.7835 14.2094 66.5679 13.5346 67.5633 13.0692C68.5586 12.6039 69.6804 12.3712 70.9288 12.3712C72.1771 12.3712 73.299 12.6039 74.2943 13.0692C75.2895 13.5346 76.0739 14.2094 76.6476 15.0936C77.2212 15.9778 77.5079 17.0404 77.5079 18.2814V18.6537C77.5079 19.8947 77.2212 20.9573 76.6476 21.8415C76.0739 22.7257 75.2895 23.4005 74.2943 23.8658C73.299 24.3312 72.1771 24.5639 70.9288 24.5639ZM70.9288 21.9578C71.9072 21.9578 72.7169 21.6708 73.358 21.0969C73.999 20.5074 74.3196 19.6697 74.3196 18.5839V18.3512C74.3196 17.2653 73.999 16.4354 73.358 15.8614C72.7338 15.272 71.924 14.9772 70.9288 14.9772C69.9503 14.9772 69.1406 15.272 68.4995 15.8614C67.8584 16.4354 67.5379 17.2653 67.5379 18.3512V18.5839C67.5379 19.6697 67.8584 20.5074 68.4995 21.0969C69.1406 21.6708 69.9503 21.9578 70.9288 21.9578Z" fill="#1A1D25"/>
<path d="M78.7041 18.5141V18.1418C78.7041 16.9318 78.9655 15.9002 79.4885 15.047C80.0115 14.1784 80.7031 13.5191 81.5635 13.0692C82.4407 12.6039 83.3938 12.3712 84.4229 12.3712C85.57 12.3712 86.4388 12.5573 87.0292 12.9296C87.6197 13.3019 88.0499 13.6897 88.3198 14.093H88.7753V12.6969H91.9131V26.2857C91.9131 27.0769 91.66 27.7051 91.1539 28.1705C90.6478 28.6514 89.9731 28.8918 89.1295 28.8918H80.7285V26.3323H88.0161C88.4886 26.3323 88.7247 26.0996 88.7247 25.6342V22.6326H88.2692C88.1005 22.8808 87.8643 23.1367 87.5607 23.4005C87.2571 23.6486 86.8522 23.8581 86.3461 24.0287C85.8399 24.1993 85.199 24.2847 84.4229 24.2847C83.3938 24.2847 82.4407 24.0597 81.5635 23.6099C80.7031 23.1445 80.0115 22.4852 79.4885 21.632C78.9655 20.7634 78.7041 19.724 78.7041 18.5141ZM85.3339 21.7251C86.3124 21.7251 87.1305 21.4381 87.7884 20.8642C88.4464 20.2902 88.7753 19.4836 88.7753 18.4443V18.2116C88.7753 17.1567 88.4464 16.3501 87.7884 15.7916C87.1473 15.2177 86.3292 14.9307 85.3339 14.9307C84.3554 14.9307 83.5373 15.2177 82.8793 15.7916C82.2214 16.3501 81.8924 17.1567 81.8924 18.2116V18.4443C81.8924 19.4836 82.2214 20.2902 82.8793 20.8642C83.5373 21.4381 84.3554 21.7251 85.3339 21.7251Z" fill="#1A1D25"/>
<path d="M100.282 24.5639C99.0333 24.5639 97.9114 24.3312 96.916 23.8658C95.9208 23.4005 95.1363 22.7257 94.5628 21.8415C93.9892 20.9573 93.7024 19.8947 93.7024 18.6537V18.2814C93.7024 17.0404 93.9892 15.9778 94.5628 15.0936C95.1363 14.2094 95.9208 13.5346 96.916 13.0692C97.9114 12.6039 99.0333 12.3712 100.282 12.3712C101.53 12.3712 102.652 12.6039 103.647 13.0692C104.642 13.5346 105.427 14.2094 106 15.0936C106.574 15.9778 106.861 17.0404 106.861 18.2814V18.6537C106.861 19.8947 106.574 20.9573 106 21.8415C105.427 22.7257 104.642 23.4005 103.647 23.8658C102.652 24.3312 101.53 24.5639 100.282 24.5639ZM100.282 21.9578C101.26 21.9578 102.07 21.6708 102.711 21.0969C103.352 20.5074 103.672 19.6697 103.672 18.5839V18.3512C103.672 17.2653 103.352 16.4354 102.711 15.8614C102.087 15.272 101.277 14.9772 100.282 14.9772C99.3031 14.9772 98.4935 15.272 97.8524 15.8614C97.2113 16.4354 96.8908 17.2653 96.8908 18.3512V18.5839C96.8908 19.6697 97.2113 20.5074 97.8524 21.0969C98.4935 21.6708 99.3031 21.9578 100.282 21.9578Z" fill="#1A1D25"/>
<path d="M108.665 24.2381V12.6969H111.854V24.2381H108.665ZM110.26 11.3474C109.686 11.3474 109.197 11.1767 108.792 10.8354C108.404 10.4942 108.21 10.0443 108.21 9.48587C108.21 8.92743 108.404 8.47757 108.792 8.1363C109.197 7.79503 109.686 7.62439 110.26 7.62439C110.85 7.62439 111.34 7.79503 111.727 8.1363C112.115 8.47757 112.31 8.92743 112.31 9.48587C112.31 10.0443 112.115 10.4942 111.727 10.8354C111.34 11.1767 110.85 11.3474 110.26 11.3474Z" fill="#1A1D25"/>
<path d="M114.248 28.8918V12.6969H117.385V14.093H117.841C118.127 13.6432 118.574 13.2476 119.182 12.9063C119.789 12.5496 120.658 12.3712 121.789 12.3712C122.8 12.3712 123.736 12.6039 124.597 13.0692C125.458 13.5191 126.15 14.1861 126.672 15.0703C127.195 15.9545 127.457 17.0249 127.457 18.2814V18.6537C127.457 19.9102 127.195 20.9805 126.672 21.8647C126.15 22.7489 125.458 23.4237 124.597 23.8891C123.736 24.3389 122.8 24.5639 121.789 24.5639C121.03 24.5639 120.388 24.4786 119.865 24.3079C119.359 24.1528 118.946 23.9511 118.625 23.7029C118.322 23.4392 118.077 23.1755 117.891 22.9118H117.436V28.8918H114.248ZM120.826 22.0043C121.822 22.0043 122.64 21.7174 123.281 21.1434C123.939 20.5539 124.268 19.7008 124.268 18.5839V18.3512C124.268 17.2343 123.939 16.3889 123.281 15.8149C122.623 15.2254 121.805 14.9307 120.826 14.9307C119.849 14.9307 119.03 15.2254 118.372 15.8149C117.714 16.3889 117.385 17.2343 117.385 18.3512V18.5839C117.385 19.7008 117.714 20.5539 118.372 21.1434C119.03 21.7174 119.849 22.0043 120.826 22.0043Z" fill="#1A1D25"/>
<path d="M134.458 24.5639C132.822 24.5639 131.481 24.2381 130.435 23.5866C129.39 22.9351 128.757 22.0043 128.537 20.7944L131.472 20.0963C131.591 20.6393 131.784 21.0658 132.055 21.3761C132.341 21.6863 132.687 21.9113 133.093 22.0509C133.513 22.175 133.969 22.237 134.458 22.237C135.201 22.237 135.749 22.1207 136.103 21.888C136.457 21.6398 136.635 21.3373 136.635 20.9805C136.635 20.6237 136.466 20.3523 136.129 20.1661C135.791 19.9645 135.251 19.8016 134.51 19.6775L133.801 19.5611C132.923 19.406 132.123 19.1966 131.397 18.9329C130.671 18.6537 130.089 18.2736 129.651 17.7927C129.212 17.3119 128.993 16.6914 128.993 15.9313C128.993 14.7833 129.448 13.9069 130.36 13.3019C131.27 12.6814 132.468 12.3712 133.953 12.3712C135.352 12.3712 136.517 12.6581 137.445 13.2321C138.372 13.8061 138.979 14.5584 139.266 15.4892L136.306 16.3268C136.171 15.7374 135.893 15.3185 135.471 15.0703C135.065 14.8221 134.56 14.698 133.953 14.698C133.345 14.698 132.882 14.7989 132.561 15.0005C132.24 15.1867 132.08 15.4504 132.08 15.7916C132.08 16.1639 132.249 16.4432 132.586 16.6293C132.923 16.7999 133.379 16.9318 133.953 17.0249L134.661 17.1412C135.606 17.2963 136.457 17.5058 137.216 17.7695C137.993 18.0177 138.6 18.3822 139.039 18.8631C139.494 19.3285 139.722 19.9645 139.722 20.7711C139.722 21.9811 139.241 22.9196 138.28 23.5866C137.335 24.2381 136.061 24.5639 134.458 24.5639Z" fill="#1A1D25"/>
<path d="M146.16 24.4243C145.182 24.4243 144.321 24.2226 143.579 23.8193C142.853 23.4005 142.289 22.8265 141.883 22.0974C141.479 21.3683 141.276 20.5307 141.276 19.5844V12.6969H144.465V19.3517C144.465 20.2204 144.692 20.8719 145.148 21.3063C145.62 21.7406 146.286 21.9578 147.147 21.9578C148.125 21.9578 148.885 21.6631 149.424 21.0736C149.964 20.4686 150.234 19.6309 150.234 18.5606V12.6969H153.423V24.2381H150.284V22.7257H149.83C149.627 23.1135 149.247 23.4935 148.691 23.8658C148.134 24.2381 147.29 24.4243 146.16 24.4243Z" fill="#1A1D25"/>
<path d="M155.831 24.238V12.6968H158.969V13.9533H159.424C159.644 13.5655 160.007 13.232 160.513 12.9528C161.019 12.658 161.685 12.5107 162.512 12.5107C163.406 12.5107 164.123 12.6736 164.663 12.9993C165.202 13.3096 165.615 13.7206 165.902 14.2326H166.358C166.645 13.7362 167.05 13.3251 167.573 12.9993C168.096 12.6736 168.838 12.5107 169.799 12.5107C170.575 12.5107 171.276 12.6658 171.9 12.9761C172.541 13.2708 173.047 13.7284 173.418 14.3489C173.806 14.9539 174 15.7217 174 16.6525V24.238H170.811V16.8619C170.811 16.2259 170.634 15.7528 170.281 15.4425C169.926 15.1168 169.428 14.9539 168.788 14.9539C168.062 14.9539 167.497 15.171 167.092 15.6054C166.704 16.0242 166.51 16.6292 166.51 17.4203V24.238H163.322V16.8619C163.322 16.2259 163.145 15.7528 162.79 15.4425C162.436 15.1168 161.939 14.9539 161.297 14.9539C160.572 14.9539 160.006 15.171 159.601 15.6054C159.213 16.0242 159.02 16.6292 159.02 17.4203V24.238H155.831Z" fill="#1A1D25"/>
<path d="M42.1747 15.5127C42.1747 11.3985 40.3973 7.45275 37.2335 4.54356C34.0698 1.63437 29.7788 5.39515e-07 25.3046 0C20.8304 -5.39514e-07 16.5395 1.63437 13.3757 4.54356C10.2119 7.45275 8.43457 11.3985 8.43457 15.5127H13.7065C15.4535 15.5127 16.8159 14.1665 17.4558 12.6717C17.8759 11.6903 18.5134 10.7884 19.3401 10.0281C20.922 8.57352 23.0675 7.75634 25.3046 7.75634C27.5417 7.75634 29.6872 8.57352 31.2691 10.0281C32.851 11.4827 33.7396 13.4556 33.7396 15.5127H42.1747Z" fill="#FF4A0B"/>
<path d="M32.4561 21.4491C33.3039 19.567 33.7403 17.5498 33.7403 15.5127H42.1744C42.1744 24.0801 34.6214 31.0253 25.3044 31.0253C23.8453 31.0253 22.4293 30.855 21.0791 30.5348C21.8431 30.3538 22.594 30.1233 23.3261 29.8445C25.3729 29.0649 27.2326 27.9223 28.7992 26.4818C30.3657 25.0413 31.6084 23.3312 32.4561 21.4491Z" fill="#CE3900"/>
<path d="M0 15.5126C-3.16933e-07 17.5498 0.436356 19.567 1.28415 21.4491C2.13196 23.3312 3.37459 25.0413 4.94112 26.4818C6.50764 27.9222 8.36739 29.0649 10.4142 29.8445C12.4609 30.6241 14.6546 31.0253 16.8701 31.0253C19.0854 31.0253 21.2791 30.6241 23.3259 29.8445C25.3727 29.0649 27.2324 27.9222 28.799 26.4818C30.3655 25.0413 31.6081 23.3312 32.4559 21.4491C33.3037 19.567 33.7401 17.5498 33.7401 15.5126H28.4681C26.7212 15.5126 25.3588 16.8588 24.7189 18.3535C24.7007 18.3961 24.682 18.4385 24.663 18.4809C24.2391 19.4219 23.6178 20.277 22.8345 20.9972C22.0512 21.7174 21.1213 22.2888 20.098 22.6786C19.0746 23.0684 17.9778 23.269 16.8701 23.269C15.7623 23.269 14.6655 23.0684 13.6421 22.6786C12.6187 22.2888 11.6889 21.7174 10.9056 20.9972C10.1223 20.277 9.501 19.4219 9.0771 18.4809C8.65319 17.5398 8.43502 16.5312 8.43502 15.5126H0Z" fill="#FF4A0B"/>
<path d="M0.00195312 15.5127C0.00195312 6.94524 7.55491 0 16.8719 0C18.3307 0 19.7462 0.170246 21.0963 0.490323C18.1993 1.17657 15.5269 2.56535 13.3755 4.54357C10.2118 7.45273 8.43441 11.3985 8.43441 15.5127H0.00195312Z" fill="#CE3900"/>
</g>
<defs>
<clipPath id="clip0_118_694">
<rect width="174" height="32" fill="white"/>
</clipPath>
</defs>
</svg>
