<svg width="18" height="19" viewBox="0 0 18 19" fill="none" xmlns="http://www.w3.org/2000/svg">
<g clip-path="url(#clip0_176_3517)">
<path d="M16.4531 4.63082L12.584 0.78125H4.06339C3.47316 0.78125 2.98828 1.23329 2.98828 1.82349V7.32896C2.98828 7.32791 3.02425 7.32031 3.04815 7.32031H3.51562V1.82349C3.51562 1.52885 3.76875 1.30859 4.06339 1.30859H12.3456L12.5156 1.46803V3.63341C12.5156 4.22118 12.9936 4.68359 13.5814 4.68359H15.7468L15.8906 4.85217V17.1411C15.8906 17.4358 15.6859 17.6914 15.3913 17.6914H4.06339C3.76875 17.6914 3.51562 17.4357 3.51562 17.1411V15.0195H3.04815C3.02425 15.0195 2.98828 15.0208 2.98828 15.0198V17.1411C2.98828 17.7313 3.47316 18.2188 4.06339 18.2188H15.3913C15.9815 18.2188 16.4531 17.7313 16.4531 17.1411V4.63082ZM13.5814 4.15625C13.2867 4.15625 13.043 3.92805 13.043 3.63341V2.0448L15.17 4.15625H13.5814Z" fill="#474D5E"/>
<path d="M13.1344 7.84766H2.61555C2.02535 7.84766 1.54688 8.32613 1.54688 8.91634V13.3884C1.54688 13.9786 2.02535 14.457 2.61555 14.457H13.1344C13.7246 14.457 14.2031 13.9786 14.2031 13.3884V8.91634C14.2031 8.32613 13.7246 7.84766 13.1344 7.84766ZM5.06457 12.2155C5.21441 12.2155 5.36818 12.1946 5.50877 12.153C5.64933 12.1112 5.76562 12.0611 5.94141 12.0023V12.7763C5.625 12.9015 5.33036 12.964 4.97352 12.964C4.46217 12.964 4.06586 12.8157 3.79322 12.5191C3.52055 12.2225 3.38207 11.7938 3.38207 11.233C3.38207 10.8823 3.44704 10.5742 3.57912 10.3084C3.7112 10.0427 3.90066 9.83841 4.14861 9.6955C4.39657 9.55259 4.68788 9.48116 5.02313 9.48116C5.38928 9.48116 5.73901 9.56075 6.07271 9.71983L5.79227 10.4405C5.67042 10.3831 5.54502 10.3336 5.41684 10.2922C5.29168 10.252 5.15728 10.232 5.0136 10.232C4.79577 10.232 4.62582 10.3212 4.5038 10.4996C4.38173 10.678 4.32074 10.924 4.32074 11.2376C4.32074 11.8896 4.5687 12.2155 5.06457 12.2155ZM7.56724 10.6096C7.63597 10.6622 7.82251 10.7579 8.12686 10.897C8.41883 11.0283 8.62158 11.1693 8.73513 11.3199C8.84865 11.4705 8.90547 11.6601 8.90547 11.8888C8.90547 12.0989 8.85213 12.2854 8.74557 12.4484C8.63898 12.6114 8.48524 12.738 8.28443 12.8284C8.08358 12.9188 7.84797 12.964 7.57765 12.964C7.35205 12.964 7.16611 12.9481 7.01314 12.9164C6.86021 12.8848 6.71481 12.8295 6.53903 12.7508V11.9351C6.71481 12.0247 6.89186 12.0946 7.08036 12.1448C7.2688 12.195 7.44022 12.2201 7.59783 12.2201C7.73374 12.2201 7.83257 12.1966 7.89595 12.1494C7.95927 12.1023 7.99056 12.0417 7.99056 11.9675C7.99056 11.9212 7.97762 11.8806 7.95213 11.8459C7.92664 11.8111 7.88558 11.776 7.82919 11.7404C7.7728 11.7049 7.62251 11.6323 7.37845 11.5226C7.1575 11.4222 6.9918 11.3249 6.88138 11.2306C6.77092 11.1364 6.68904 11.0283 6.63574 10.9062C6.58245 10.7842 6.5558 10.6397 6.5558 10.4729C6.5558 10.1609 6.66935 9.91755 6.89643 9.74293C7.1235 9.56838 7.43555 9.48109 7.8326 9.48109C8.18329 9.48109 8.54089 9.56219 8.9055 9.72437L8.62509 10.4311C8.30837 10.286 8.03493 10.2133 7.80476 10.2133C7.68579 10.2133 7.59927 10.2342 7.54523 10.2759C7.49113 10.3176 7.46413 10.3693 7.46413 10.4311C7.46413 10.4977 7.49851 10.5571 7.56724 10.6096ZM11.3411 12.9102H10.2636L9.1582 9.53516H10.1871L10.6482 11.2496C10.744 11.6312 10.7965 11.8955 10.8058 12.0454C10.8166 11.9373 10.8383 11.8014 10.8707 11.6392C10.9031 11.477 10.9317 11.3519 10.9564 11.2592L11.4268 9.53516H12.451L11.3411 12.9102Z" fill="#474D5E"/>
</g>
<defs>
<clipPath id="clip0_176_3517">
<rect width="18" height="18" fill="white" transform="translate(0 0.5)"/>
</clipPath>
</defs>
</svg>
