<svg width="28" height="28" viewBox="0 0 28 28" fill="none" xmlns="http://www.w3.org/2000/svg">
<g clip-path="url(#clip0_206_2456)">
<path d="M22.167 14C24.1 14 25.667 12.433 25.667 10.5C25.667 8.567 24.1 7 22.167 7C20.234 7 18.667 8.567 18.667 10.5C18.667 12.433 20.234 14 22.167 14Z" fill="white"/>
<path d="M5.83301 14C7.766 14 9.33301 12.433 9.33301 10.5C9.33301 8.567 7.766 7 5.83301 7C3.90001 7 2.33301 8.567 2.33301 10.5C2.33301 12.433 3.90001 14 5.83301 14Z" fill="white"/>
<path d="M13.9997 12.8333C16.577 12.8333 18.6663 10.744 18.6663 8.16667C18.6663 5.58934 16.577 3.5 13.9997 3.5C11.4223 3.5 9.33301 5.58934 9.33301 8.16667C9.33301 10.744 11.4223 12.8333 13.9997 12.8333Z" fill="white"/>
<path d="M25.6667 15.1667H21.5396C21.9511 15.8754 22.1675 16.6805 22.1667 17.5V25.6667H26.8333C27.1428 25.6667 27.4395 25.5438 27.6583 25.325C27.8771 25.1062 28 24.8095 28 24.5V17.5C28 16.8812 27.7542 16.2877 27.3166 15.8501C26.879 15.4125 26.2855 15.1667 25.6667 15.1667ZM6.46115 15.1667H2.33333C1.71449 15.1667 1.121 15.4125 0.683417 15.8501C0.245833 16.2877 0 16.8812 0 17.5L0 24.5C0 24.8095 0.122916 25.1062 0.341709 25.325C0.560501 25.5438 0.857247 25.6667 1.16667 25.6667H5.83333V17.5C5.83274 16.6805 6.04937 15.8753 6.46115 15.1667ZM17.5 12.8334H16.3333L14 19.8334L11.6667 12.8334H10.5C9.57174 12.8334 8.6815 13.2021 8.02513 13.8585C7.36875 14.5149 7 15.4051 7 16.3334V26.8334C7 27.1428 7.12292 27.4395 7.34171 27.6583C7.5605 27.8771 7.85725 28 8.16667 28H19.8333C20.1428 28 20.4395 27.8771 20.6583 27.6583C20.8771 27.4395 21 27.1428 21 26.8334V16.3334C21 15.4051 20.6313 14.5149 19.9749 13.8585C19.3185 13.2021 18.4283 12.8334 17.5 12.8334Z" fill="white"/>
</g>
<defs>
<clipPath id="clip0_206_2456">
<rect width="28" height="28" fill="white"/>
</clipPath>
</defs>
</svg>
