<svg width="150" height="150" viewBox="0 0 150 150" fill="none" xmlns="http://www.w3.org/2000/svg">
<g clip-path="url(#clip0_245_2741)">
<path d="M134.963 27.4663H17.9523C16.3737 27.4673 14.86 28.0948 13.7438 29.2111C12.6275 30.3273 12 31.841 11.999 33.4196V140.778C12 142.356 12.6275 143.87 13.7438 144.986C14.86 146.103 16.3737 146.73 17.9523 146.731H134.963C136.541 146.73 138.055 146.103 139.172 144.987C140.288 143.87 140.916 142.356 140.917 140.778V33.4196C140.916 31.8409 140.288 30.3271 139.172 29.2108C138.055 28.0946 136.541 27.4671 134.963 27.4663Z" fill="#AAB0C2"/>
<path d="M127.26 109.425H25.6564C22.3687 109.425 19.7031 106.759 19.7031 103.471V8.6149C19.7031 5.32719 22.3687 2.66162 25.6564 2.66162H127.26C130.548 2.66162 133.213 5.32719 133.213 8.6149V103.471C133.213 106.759 130.548 109.425 127.26 109.425Z" fill="#FCFCFC"/>
<path d="M21.588 105.356V10.4997C21.588 7.21203 24.2535 4.54646 27.5412 4.54646H129.145C130.306 4.54646 131.386 4.88396 132.301 5.45875C131.248 3.78047 129.387 2.66162 127.26 2.66162H25.6564C22.3687 2.66162 19.7031 5.32719 19.7031 8.6149V103.471C19.7031 105.599 20.822 107.46 22.5003 108.513C21.9255 107.597 21.588 106.518 21.588 105.356V105.356Z" fill="#E3E5EB"/>
<path d="M114.759 22.7031H38.1592V27.0685H114.759V22.7031ZM114.759 39.3716H38.1592V43.7369H114.759V39.3716ZM114.759 56.0437H38.1592V60.4091H114.759V56.0437ZM114.759 72.7121H38.1592V77.0781H114.759V72.7121Z" fill="#F0F1F2"/>
<path d="M47.2871 58.6221L66.5357 77.8713H47.2871V58.6221Z" fill="#C5C9D5"/>
<path d="M140.917 79.4591V35.1704L133.214 27.4663V79.4585H140.917V79.4591Z" fill="#AAB0C2"/>
<path d="M149.94 83.4649L141.641 142.218C141.226 145.156 138.712 147.339 135.746 147.339H17.1706C14.2044 147.339 11.6907 145.156 11.2758 142.218L0.0595723 62.8283C-0.44637 59.2442 2.33478 56.042 5.95445 56.042H42.5729C45.5391 56.042 48.0528 58.225 48.4678 61.1617L49.9376 71.5584C50.3526 74.4957 52.8663 76.6787 55.8325 76.6787H144.047C147.665 76.6787 150.447 79.8809 149.941 83.4649H149.94Z" fill="white"/>
<path d="M120.533 121.132H32.3842C31.9011 121.132 31.4346 120.956 31.0721 120.636C30.7096 120.317 30.4761 119.876 30.4152 119.397L29.3123 110.665C29.2773 110.386 29.302 110.102 29.385 109.833C29.4679 109.564 29.6071 109.316 29.7933 109.104C29.9795 108.893 30.2085 108.724 30.465 108.608C30.7216 108.492 30.9998 108.432 31.2814 108.432H121.636C121.918 108.432 122.196 108.492 122.452 108.608C122.709 108.724 122.938 108.893 123.124 109.104C123.31 109.316 123.45 109.564 123.532 109.833C123.615 110.102 123.64 110.386 123.605 110.665L122.502 119.397C122.441 119.876 122.208 120.317 121.845 120.636C121.483 120.956 121.016 121.132 120.533 121.132Z" fill="#E3E5EB"/>
</g>
<defs>
<clipPath id="clip0_245_2741">
<rect width="150" height="150" fill="white"/>
</clipPath>
</defs>
</svg>
