<svg width="120" height="44" viewBox="0 0 120 44" fill="none" xmlns="http://www.w3.org/2000/svg">
<path d="M19.5 34.2335L14.0315 28.6759C10.1635 24.7449 3.62793 27.5237 3.62793 33.0813V40.3333H35.3721V18.1029L19.5 34.2335Z" fill="url(#paint0_linear_2018_972)"/>
<path d="M19.5 9.76648L24.9686 15.3241C28.8365 19.2551 35.3721 16.4763 35.3721 10.9187V3.66666H3.62793V25.8971L19.5 9.76648Z" fill="url(#paint1_linear_2018_972)"/>
<path d="M49.656 34V11.44H52.984V31.152H64.056V34H49.656ZM73.14 34.288C71.54 34.288 70.1533 33.9573 68.98 33.296C67.8067 32.6133 66.9 31.6533 66.26 30.416C65.62 29.1573 65.3 27.664 65.3 25.936C65.3 24.208 65.62 22.7253 66.26 21.488C66.9 20.2293 67.8067 19.2693 68.98 18.608C70.1533 17.9253 71.54 17.584 73.14 17.584C74.74 17.584 76.1267 17.9253 77.3 18.608C78.4947 19.2693 79.412 20.2293 80.052 21.488C80.7133 22.7253 81.044 24.208 81.044 25.936C81.044 27.664 80.7133 29.1573 80.052 30.416C79.412 31.6533 78.4947 32.6133 77.3 33.296C76.1267 33.9573 74.74 34.288 73.14 34.288ZM73.14 31.76C74.548 31.76 75.668 31.2693 76.5 30.288C77.332 29.3067 77.748 27.856 77.748 25.936C77.748 24.016 77.332 22.576 76.5 21.616C75.668 20.6347 74.548 20.144 73.14 20.144C71.7533 20.144 70.644 20.6347 69.812 21.616C68.98 22.576 68.564 24.016 68.564 25.936C68.564 27.856 68.9693 29.3067 69.78 30.288C70.612 31.2693 71.732 31.76 73.14 31.76ZM91.4458 41.168C89.9951 41.168 88.6724 40.9973 87.4778 40.656C86.3044 40.3147 85.2484 39.8027 84.3098 39.12L85.1098 36.752C85.7711 37.2 86.4218 37.552 87.0618 37.808C87.7018 38.0853 88.3738 38.288 89.0778 38.416C89.7818 38.544 90.5071 38.608 91.2538 38.608C92.7898 38.608 93.9418 38.2133 94.7098 37.424C95.4991 36.656 95.8938 35.536 95.8938 34.064V29.744H96.2138C95.8724 30.9387 95.1684 31.888 94.1018 32.592C93.0564 33.2747 91.8404 33.616 90.4538 33.616C88.9818 33.616 87.7018 33.296 86.6138 32.656C85.5471 31.9947 84.7151 31.0667 84.1178 29.872C83.5418 28.656 83.2538 27.2267 83.2538 25.584C83.2538 23.9413 83.5418 22.5227 84.1178 21.328C84.7151 20.1333 85.5471 19.216 86.6138 18.576C87.7018 17.9147 88.9818 17.584 90.4538 17.584C91.8618 17.584 93.0778 17.936 94.1018 18.64C95.1471 19.3227 95.8404 20.2613 96.1818 21.456L95.8938 21.2L96.1818 17.872H99.3178C99.2324 18.5333 99.1684 19.1947 99.1258 19.856C99.0831 20.496 99.0618 21.1253 99.0618 21.744V33.68C99.0618 36.112 98.4111 37.968 97.1098 39.248C95.8298 40.528 93.9418 41.168 91.4458 41.168ZM91.2218 31.088C92.6298 31.088 93.7498 30.608 94.5818 29.648C95.4351 28.688 95.8618 27.3333 95.8618 25.584C95.8618 23.8347 95.4351 22.4907 94.5818 21.552C93.7498 20.6133 92.6298 20.144 91.2218 20.144C89.7711 20.144 88.6191 20.6133 87.7658 21.552C86.9338 22.4907 86.5178 23.8347 86.5178 25.584C86.5178 27.3333 86.9338 28.688 87.7658 29.648C88.6191 30.608 89.7711 31.088 91.2218 31.088ZM110.048 34.288C108.448 34.288 107.061 33.9573 105.888 33.296C104.714 32.6133 103.808 31.6533 103.168 30.416C102.528 29.1573 102.208 27.664 102.208 25.936C102.208 24.208 102.528 22.7253 103.168 21.488C103.808 20.2293 104.714 19.2693 105.888 18.608C107.061 17.9253 108.448 17.584 110.048 17.584C111.648 17.584 113.034 17.9253 114.208 18.608C115.402 19.2693 116.32 20.2293 116.96 21.488C117.621 22.7253 117.952 24.208 117.952 25.936C117.952 27.664 117.621 29.1573 116.96 30.416C116.32 31.6533 115.402 32.6133 114.208 33.296C113.034 33.9573 111.648 34.288 110.048 34.288ZM110.048 31.76C111.456 31.76 112.576 31.2693 113.408 30.288C114.24 29.3067 114.656 27.856 114.656 25.936C114.656 24.016 114.24 22.576 113.408 21.616C112.576 20.6347 111.456 20.144 110.048 20.144C108.661 20.144 107.552 20.6347 106.72 21.616C105.888 22.576 105.472 24.016 105.472 25.936C105.472 27.856 105.877 29.3067 106.688 30.288C107.52 31.2693 108.64 31.76 110.048 31.76Z" fill="#F6F7F9"/>
<defs>
<linearGradient id="paint0_linear_2018_972" x1="19.5" y1="40.3333" x2="19.5" y2="18.1029" gradientUnits="userSpaceOnUse">
<stop stop-color="#E60076"/>
<stop offset="1" stop-color="#5224E2"/>
</linearGradient>
<linearGradient id="paint1_linear_2018_972" x1="19.5" y1="25.8971" x2="19.5" y2="3.66666" gradientUnits="userSpaceOnUse">
<stop stop-color="#E60076"/>
<stop offset="1" stop-color="#5224E2"/>
</linearGradient>
</defs>
</svg>
