<svg width="32" height="32" viewBox="0 0 32 32" fill="none" xmlns="http://www.w3.org/2000/svg">
<path d="M28.375 17.77C28.055 16.96 27.695 16.15 27.3 15.415C25.945 12.895 25.855 10.815 25.88 10.015C25.89 9.70501 25.735 9.41001 25.46 9.24501C25.18 9.07501 24.83 9.11501 24.555 9.29501C23.005 10.315 22.18 12.24 22.585 14.14C22.935 15.765 23.46 17.215 23.46 17.215L21.715 14.695L16.705 6.70501C16.295 6.02501 15.435 5.79501 14.77 6.19001C14.1 6.58501 13.865 7.46501 14.24 8.17501L18.42 16.035L11.97 9.56001C11.405 8.99501 10.51 8.99501 9.96004 9.56001L9.90004 9.62501C9.35004 10.195 9.35004 11.115 9.90004 11.7L16.11 18.295L9.21504 13.7C9.05836 13.5946 8.88198 13.522 8.69651 13.4866C8.51104 13.4511 8.32032 13.4535 8.13581 13.4937C7.95131 13.5339 7.77683 13.611 7.62289 13.7203C7.46895 13.8297 7.33872 13.969 7.24004 14.13L7.23004 14.145C6.82504 14.8 6.98504 15.675 7.60004 16.14L14.46 21.32L9.03004 18.785C8.33004 18.46 7.51504 18.815 7.26504 19.56C7.05504 20.19 7.32504 20.89 7.90004 21.205L13.38 24.37C13.83 24.63 14.245 24.95 14.615 25.32L15.98 26.69C19.13 29.855 24.305 29.785 27.15 26.33C27.265 26.19 27.38 26.04 27.49 25.89C29.165 23.56 29.44 20.455 28.385 17.77H28.375Z" fill="#8AFF20"/>
<path d="M19 6C20.105 6 21 6.895 21 8C21 8.275 21.225 8.5 21.5 8.5C21.775 8.5 22 8.275 22 8C22 6.345 20.655 5 19 5C18.725 5 18.5 5.225 18.5 5.5C18.5 5.775 18.725 6 19 6Z" fill="#8AFF20"/>
<path d="M19.5 4C21.43 4 23 5.57 23 7.5C23 7.775 23.225 8 23.5 8C23.775 8 24 7.775 24 7.5C24 5.02 21.98 3 19.5 3C19.225 3 19 3.225 19 3.5C19 3.775 19.225 4 19.5 4ZM8 24C6.895 24 6 23.105 6 22C6 21.725 5.775 21.5 5.5 21.5C5.225 21.5 5 21.725 5 22C5 23.655 6.345 25 8 25C8.275 25 8.5 24.775 8.5 24.5C8.5 24.225 8.275 24 8 24Z" fill="#8AFF20"/>
<path d="M7.5 26C5.57 26 4 24.43 4 22.5C4 22.225 3.775 22 3.5 22C3.225 22 3 22.225 3 22.5C3 24.98 5.02 27 7.5 27C7.775 27 8 26.775 8 26.5C8 26.225 7.775 26 7.5 26Z" fill="#8AFF20"/>
</svg>
