<svg preserveAspectRatio="none" width="100%" height="100%" overflow="visible" style="display: block;" viewBox="0 0 19.9977 20" fill="none" xmlns="http://www.w3.org/2000/svg">
<g id="Binance Coin (BNB)">
<path id="Binance Coin (BNB)_2" d="M19.6986 12.419C18.363 17.7762 12.937 21.0365 7.57919 19.7006C2.22361 18.365 -1.03667 12.9387 0.299485 7.58197C1.63447 2.22419 7.06044 -1.03634 12.4166 0.299234C17.7741 1.63481 21.0341 7.0617 19.6984 12.4191L19.6985 12.419H19.6986Z" fill="var(--fill-0, #F3BA2F)"/>
<path id="Binance Coin (BNB)_3" fill-rule="evenodd" clip-rule="evenodd" d="M10 6.34667L7.41056 8.93611L7.41061 8.936L5.904 7.42933L10 3.33333L14.0973 7.43056L12.5907 8.93723L10 6.34667ZM4.84005 8.49307L3.33333 10L4.83995 11.5064L6.34667 9.99968L4.84005 8.49307ZM7.41056 11.0641L10 13.6533L12.5906 11.0628L14.0981 12.5687L14.0973 12.5695L10 16.6667L5.904 12.5707L5.90187 12.5685L7.41056 11.0641ZM15.1601 8.49392L13.6533 10.0006L15.16 11.5073L16.6667 10.0005L15.1601 8.49392Z" fill="var(--fill-0, white)"/>
<path id="Binance Coin (BNB)_4" d="M11.5281 9.9992H11.5287L10 8.47035L8.87003 9.6V9.6L8.74021 9.72987L8.47248 9.99765L8.47035 9.99973L8.47248 10.0019L10 11.5297L11.5289 10.0008L11.5296 9.99995L11.5282 9.9992" fill="var(--fill-0, white)"/>
</g>
</svg>
