<svg preserveAspectRatio="none" width="100%" height="100%" overflow="visible" style="display: block;" viewBox="0 0 24 24" fill="none" xmlns="http://www.w3.org/2000/svg">
<g id="wallet">
<g id="Vector" opacity="0">
</g>
<path id="Vector_2" d="M21.45 13.64V14.64C21.45 14.91 21.24 15.13 20.96 15.14H19.5C18.97 15.14 18.49 14.75 18.45 14.23C18.42 13.92 18.54 13.63 18.74 13.43C18.92 13.24 19.17 13.14 19.44 13.14H20.95C21.24 13.15 21.45 13.37 21.45 13.64Z" fill="var(--fill-0, #F6F7F9)"/>
<path id="Vector_3" d="M17.99 12.69C17.49 13.18 17.25 13.91 17.45 14.67C17.71 15.6 18.62 16.19 19.58 16.19H20.45C21 16.19 21.45 16.64 21.45 17.19V17.38C21.45 19.45 19.76 21.14 17.69 21.14H6.21C4.14 21.14 2.45 19.45 2.45 17.38V10.65C2.45 9.42 3.04 8.33 3.95 7.65C4.58 7.17 5.36 6.89 6.21 6.89H17.69C19.76 6.89 21.45 8.58 21.45 10.65V11.09C21.45 11.64 21 12.09 20.45 12.09H19.43C18.87 12.09 18.36 12.31 17.99 12.69Z" fill="var(--fill-0, #F6F7F9)"/>
<path id="Vector_4" d="M16.2 4.82C16.47 5.09 16.24 5.51 15.86 5.51L8.18 5.5C7.74 5.5 7.51 4.96 7.83 4.65L9.45 3.02C10.82 1.66 13.04 1.66 14.41 3.02L16.16 4.79C16.17 4.8 16.19 4.81 16.2 4.82Z" fill="var(--fill-0, #F6F7F9)"/>
</g>
</svg>
